<svg version="1.1" viewBox="0.0 0.0 259.09711286089237 407.8897637795276" fill="none" stroke="none" stroke-linecap="square" stroke-miterlimit="10" xmlns:xlink="http://www.w3.org/1999/xlink" xmlns="http://www.w3.org/2000/svg"><clipPath id="p.0"><path d="m0 0l259.0971 0l0 407.88977l-259.0971 0l0 -407.88977z" clip-rule="nonzero"/></clipPath><g clip-path="url(#p.0)"><path fill="#000000" fill-opacity="0.0" d="m0 0l259.0971 0l0 407.88977l-259.0971 0z" fill-rule="evenodd"/><path fill="#d9ead3" d="m172.26895 38.34902l0 0c0 -12.985212 -10.526596 -23.51181 -23.51181 -23.51181l0 0c-6.235718 0 -12.216049 2.47713 -16.625366 6.886451c-4.409317 4.409319 -6.8864517 10.389641 -6.8864517 16.625359l0 0c0 12.985218 10.526604 23.511814 23.511818 23.511814l0 0c12.985214 0 23.51181 -10.526596 23.51181 -23.511814z" fill-rule="evenodd"/><path stroke="#595959" stroke-width="2.0" stroke-linejoin="round" stroke-linecap="butt" d="m172.26895 38.34902l0 0c0 -12.985212 -10.526596 -23.51181 -23.51181 -23.51181l0 0c-6.235718 0 -12.216049 2.47713 -16.625366 6.886451c-4.409317 4.409319 -6.8864517 10.389641 -6.8864517 16.625359l0 0c0 12.985218 10.526604 23.511814 23.511818 23.511814l0 0c12.985214 0 23.51181 -10.526596 23.51181 -23.511814z" fill-rule="evenodd"/><path fill="#000000" d="m151.61066 44.998394l0.3125 1.859375q-0.890625 0.203125 -1.59375 0.203125q-1.15625 0 -1.796875 -0.359375q-0.625 -0.375 -0.890625 -0.96875q-0.25 -0.59375 -0.25 -2.484375l0 -7.171875l-1.546875 0l0 -1.640625l1.546875 0l0 -3.078125l2.09375 -1.265625l0 4.34375l2.125 0l0 1.640625l-2.125 0l0 7.28125q0 0.90625 0.109375 1.171875q0.125 0.25 0.375 0.40625q0.25 0.140625 0.71875 0.140625q0.34375 0 0.921875 -0.078125z" fill-rule="nonzero"/><path fill="#fff2cc" d="m238.86089 169.28543l0 0c0 -12.985214 -10.526596 -23.51181 -23.51181 -23.51181l0 0c-6.235718 0 -12.216034 2.477127 -16.62535 6.886444c-4.409317 4.4093323 -6.8864594 10.389648 -6.8864594 16.625366l0 0c0 12.985214 10.526596 23.51181 23.51181 23.51181l0 0c12.985214 0 23.51181 -10.526596 23.51181 -23.51181z" fill-rule="evenodd"/><path stroke="#595959" stroke-width="2.0" stroke-linejoin="round" stroke-linecap="butt" d="m238.86089 169.28543l0 0c0 -12.985214 -10.526596 -23.51181 -23.51181 -23.51181l0 0c-6.235718 0 -12.216034 2.477127 -16.62535 6.886444c-4.409317 4.4093323 -6.8864594 10.389648 -6.8864594 16.625366l0 0c0 12.985214 10.526596 23.51181 23.51181 23.51181l0 0c12.985214 0 23.51181 -10.526596 23.51181 -23.51181z" fill-rule="evenodd"/><path fill="#000000" d="m209.47212 171.60667q0 -3.46875 1.921875 -5.125q1.609375 -1.390625 3.921875 -1.390625q2.5625 0 4.1875 1.6875q1.625 1.6875 1.625 4.640625q0 2.40625 -0.71875 3.78125q-0.71875 1.375 -2.09375 2.140625q-1.375 0.765625 -3.0 0.765625q-2.625 0 -4.234375 -1.671875q-1.609375 -1.6875 -1.609375 -4.828125zm2.171875 0q0 2.390625 1.03125 3.578125q1.046875 1.1875 2.640625 1.1875q1.5625 0 2.609375 -1.1875q1.046875 -1.203125 1.046875 -3.65625q0 -2.3125 -1.0625 -3.5q-1.046875 -1.1875 -2.59375 -1.1875q-1.59375 0 -2.640625 1.1875q-1.03125 1.1875 -1.03125 3.578125z" fill-rule="nonzero"/><path fill="#fff2cc" d="m172.26895 105.3294l0 0c0 -12.985214 -10.526596 -23.51181 -23.51181 -23.51181l0 0c-6.235718 0 -12.216049 2.477127 -16.625366 6.886444c-4.409317 4.4093246 -6.8864517 10.389641 -6.8864517 16.625366l0 0c0 12.985214 10.526604 23.511803 23.511818 23.511803l0 0c12.985214 0 23.51181 -10.526588 23.51181 -23.511803z" fill-rule="evenodd"/><path stroke="#595959" stroke-width="2.0" stroke-linejoin="round" stroke-linecap="butt" d="m172.26895 105.3294l0 0c0 -12.985214 -10.526596 -23.51181 -23.51181 -23.51181l0 0c-6.235718 0 -12.216049 2.477127 -16.625366 6.886444c-4.409317 4.4093246 -6.8864517 10.389641 -6.8864517 16.625366l0 0c0 12.985214 10.526604 23.511803 23.511818 23.511803l0 0c12.985214 0 23.51181 -10.526588 23.51181 -23.511803z" fill-rule="evenodd"/><path fill="#000000" d="m147.80402 113.86939l-4.734375 -12.453125l2.21875 0l2.671875 7.453125q0.4375 1.21875 0.796875 2.515625q0.28125 -0.984375 0.78125 -2.375l2.765625 -7.59375l2.171875 0l-4.703125 12.453125l-1.96875 0z" fill-rule="nonzero"/><path fill="#f3f3f3" d="m98.7906 105.3294l0 0c0 -12.985214 -10.526596 -23.51181 -23.511818 -23.51181l0 0c-6.235718 0 -12.216038 2.477127 -16.625359 6.886444c-4.409317 4.4093246 -6.886448 10.389641 -6.886448 16.625366l0 0c0 12.985214 10.526596 23.511803 23.511806 23.511803l0 0c12.985222 0 23.511818 -10.526588 23.511818 -23.511803z" fill-rule="evenodd"/><path stroke="#595959" stroke-width="2.0" stroke-linejoin="round" stroke-linecap="butt" d="m98.7906 105.3294l0 0c0 -12.985214 -10.526596 -23.51181 -23.511818 -23.51181l0 0c-6.235718 0 -12.216038 2.477127 -16.625359 6.886444c-4.409317 4.4093246 -6.886448 10.389641 -6.886448 16.625366l0 0c0 12.985214 10.526596 23.511803 23.511806 23.511803l0 0c12.985222 0 23.511818 -10.526588 23.511818 -23.511803z" fill-rule="evenodd"/><path fill="#000000" d="m70.18308 113.86939l0 -17.1875l2.109375 0l0 6.171875q1.484375 -1.71875 3.734375 -1.71875q1.375 0 2.390625 0.546875q1.03125 0.546875 1.46875 1.515625q0.4375 0.953125 0.4375 2.78125l0 7.890625l-2.109375 0l0 -7.890625q0 -1.578125 -0.6875 -2.296875q-0.6875 -0.71875 -1.9375 -0.71875q-0.9375 0 -1.765625 0.484375q-0.828125 0.484375 -1.1875 1.3125q-0.34375 0.828125 -0.34375 2.296875l0 6.8125l-2.109375 0z" fill-rule="nonzero"/><path fill="#f3f3f3" d="m134.65584 169.28543l0 0c0 -12.985214 -10.526596 -23.51181 -23.51181 -23.51181l0 0c-6.235718 0 -12.216042 2.477127 -16.625359 6.886444c-4.4093246 4.4093323 -6.8864517 10.389648 -6.8864517 16.625366l0 0c0 12.985214 10.526596 23.51181 23.51181 23.51181l0 0c12.985214 0 23.51181 -10.526596 23.51181 -23.51181z" fill-rule="evenodd"/><path stroke="#595959" stroke-width="2.0" stroke-linejoin="round" stroke-linecap="butt" d="m134.65584 169.28543l0 0c0 -12.985214 -10.526596 -23.51181 -23.51181 -23.51181l0 0c-6.235718 0 -12.216042 2.477127 -16.625359 6.886444c-4.4093246 4.4093323 -6.8864517 10.389648 -6.8864517 16.625366l0 0c0 12.985214 10.526596 23.51181 23.51181 23.51181l0 0c12.985214 0 23.51181 -10.526596 23.51181 -23.51181z" fill-rule="evenodd"/><path fill="#000000" d="m110.07176 163.07542l0 -2.4375l2.109375 0l0 2.4375l-2.109375 0zm0 14.75l0 -12.453125l2.109375 0l0 12.453125l-2.109375 0z" fill-rule="nonzero"/><path fill="#fff2cc" d="m62.786335 169.28543l0 0c0 -12.985214 -10.526596 -23.51181 -23.51181 -23.51181l0 0c-6.2357216 0 -12.216042 2.477127 -16.62536 6.886444c-4.409321 4.4093323 -6.886451 10.389648 -6.886451 16.625366l0 0c0 12.985214 10.526597 23.51181 23.51181 23.51181l0 0c12.985214 0 23.51181 -10.526596 23.51181 -23.51181z" fill-rule="evenodd"/><path stroke="#595959" stroke-width="2.0" stroke-linejoin="round" stroke-linecap="butt" d="m62.786335 169.28543l0 0c0 -12.985214 -10.526596 -23.51181 -23.51181 -23.51181l0 0c-6.2357216 0 -12.216042 2.477127 -16.62536 6.886444c-4.409321 4.4093323 -6.886451 10.389648 -6.886451 16.625366l0 0c0 12.985214 10.526597 23.51181 23.51181 23.51181l0 0c12.985214 0 23.51181 -10.526596 23.51181 -23.51181z" fill-rule="evenodd"/><path fill="#000000" d="m42.71007 173.8098l2.171875 0.28125q-0.515625 1.90625 -1.90625 2.96875q-1.390625 1.046875 -3.5625 1.046875q-2.734375 0 -4.34375 -1.671875q-1.59375 -1.6875 -1.59375 -4.734375q0 -3.140625 1.609375 -4.875q1.625 -1.734375 4.203125 -1.734375q2.5 0 4.078125 1.703125q1.59375 1.703125 1.59375 4.78125q0 0.1875 -0.015625 0.5625l-9.28125 0q0.109375 2.046875 1.15625 3.140625q1.046875 1.09375 2.609375 1.09375q1.15625 0 1.96875 -0.609375q0.828125 -0.609375 1.3125 -1.953125zm-6.9375 -3.40625l6.953125 0q-0.140625 -1.5625 -0.796875 -2.359375q-1.0 -1.21875 -2.609375 -1.21875q-1.453125 0 -2.453125 0.984375q-0.984375 0.96875 -1.09375 2.59375z" fill-rule="nonzero"/><path fill="#fff2cc" d="m238.86089 105.3294l0 0c0 -12.985214 -10.526596 -23.51181 -23.51181 -23.51181l0 0c-6.235718 0 -12.216034 2.477127 -16.62535 6.886444c-4.409317 4.4093246 -6.8864594 10.389641 -6.8864594 16.625366l0 0c0 12.985214 10.526596 23.511803 23.51181 23.511803l0 0c12.985214 0 23.51181 -10.526588 23.51181 -23.511803z" fill-rule="evenodd"/><path stroke="#595959" stroke-width="2.0" stroke-linejoin="round" stroke-linecap="butt" d="m238.86089 105.3294l0 0c0 -12.985214 -10.526596 -23.51181 -23.51181 -23.51181l0 0c-6.235718 0 -12.216034 2.477127 -16.62535 6.886444c-4.409317 4.4093246 -6.8864594 10.389641 -6.8864594 16.625366l0 0c0 12.985214 10.526596 23.511803 23.51181 23.511803l0 0c12.985214 0 23.51181 -10.526588 23.51181 -23.511803z" fill-rule="evenodd"/><path fill="#000000" d="m209.47212 107.65064q0 -3.46875 1.921875 -5.125q1.609375 -1.390625 3.921875 -1.390625q2.5625 0 4.1875 1.6875q1.625 1.6875 1.625 4.640625q0 2.40625 -0.71875 3.78125q-0.71875 1.375 -2.09375 2.140625q-1.375 0.765625 -3.0 0.765625q-2.625 0 -4.234375 -1.671875q-1.609375 -1.6875 -1.609375 -4.828125zm2.171875 0q0 2.390625 1.03125 3.578125q1.046875 1.1875 2.640625 1.1875q1.5625 0 2.609375 -1.1875q1.046875 -1.203125 1.046875 -3.65625q0 -2.3125 -1.0625 -3.5q-1.046875 -1.1875 -2.59375 -1.1875q-1.59375 0 -2.640625 1.1875q-1.03125 1.1875 -1.03125 3.578125z" fill-rule="nonzero"/><path fill="#000000" fill-opacity="0.0" d="m165.38249 54.97438l33.35434 33.732285" fill-rule="evenodd"/><path stroke="#595959" stroke-width="2.0" stroke-linejoin="round" stroke-linecap="butt" d="m165.38249 54.97438l33.35434 33.732285" fill-rule="evenodd"/><path fill="#000000" fill-opacity="0.0" d="m148.75714 61.860832l0 19.937004" fill-rule="evenodd"/><path stroke="#595959" stroke-width="2.0" stroke-linejoin="round" stroke-linecap="butt" d="m148.75714 61.860832l0 19.937004" fill-rule="evenodd"/><path fill="#000000" fill-opacity="0.0" d="m132.13177 54.97438l-40.220474 33.732285" fill-rule="evenodd"/><path stroke="#595959" stroke-width="2.0" stroke-linejoin="round" stroke-linecap="butt" d="m132.13177 54.97438l-40.220474 33.732285" fill-rule="evenodd"/><path fill="#000000" fill-opacity="0.0" d="m215.34908 128.8412l0 16.944885" fill-rule="evenodd"/><path stroke="#595959" stroke-width="2.0" stroke-linejoin="round" stroke-linecap="butt" d="m215.34908 128.8412l0 16.944885" fill-rule="evenodd"/><path fill="#000000" fill-opacity="0.0" d="m91.90415 121.95476l19.244095 23.81102" fill-rule="evenodd"/><path stroke="#595959" stroke-width="2.0" stroke-linejoin="round" stroke-linecap="butt" d="m91.90415 121.95476l19.244095 23.81102" fill-rule="evenodd"/><path fill="#000000" fill-opacity="0.0" d="m58.653427 121.95476l-19.370079 23.81102" fill-rule="evenodd"/><path stroke="#595959" stroke-width="2.0" stroke-linejoin="round" stroke-linecap="butt" d="m58.653427 121.95476l-19.370079 23.81102" fill-rule="evenodd"/><path fill="#fff2cc" d="m98.79142 233.24136l0 0c0 -12.985214 -10.526596 -23.51181 -23.51181 -23.51181l0 0c-6.235718 0 -12.216042 2.477127 -16.625362 6.8864594c-4.409317 4.409317 -6.886448 10.389633 -6.886448 16.62535l0 0c0 12.985214 10.526596 23.51181 23.51181 23.51181l0 0c12.985214 0 23.51181 -10.526596 23.51181 -23.51181z" fill-rule="evenodd"/><path stroke="#595959" stroke-width="2.0" stroke-linejoin="round" stroke-linecap="butt" d="m98.79142 233.24136l0 0c0 -12.985214 -10.526596 -23.51181 -23.51181 -23.51181l0 0c-6.235718 0 -12.216042 2.477127 -16.625362 6.8864594c-4.409317 4.409317 -6.886448 10.389633 -6.886448 16.62535l0 0c0 12.985214 10.526596 23.51181 23.51181 23.51181l0 0c12.985214 0 23.51181 -10.526596 23.51181 -23.51181z" fill-rule="evenodd"/><path fill="#000000" d="m70.013985 238.06262l2.09375 -0.328125q0.171875 1.25 0.96875 1.921875q0.8125 0.671875 2.25 0.671875q1.453125 0 2.15625 -0.59375q0.703125 -0.59375 0.703125 -1.390625q0 -0.71875 -0.625 -1.125q-0.421875 -0.28125 -2.15625 -0.71875q-2.3125 -0.578125 -3.21875 -1.0q-0.890625 -0.4375 -1.359375 -1.1875q-0.453125 -0.765625 -0.453125 -1.671875q0 -0.828125 0.375 -1.53125q0.390625 -0.71875 1.046875 -1.1875q0.484375 -0.359375 1.328125 -0.609375q0.859375 -0.265625 1.828125 -0.265625q1.46875 0 2.578125 0.421875q1.109375 0.421875 1.625 1.15625q0.53125 0.71875 0.734375 1.921875l-2.0625 0.28125q-0.140625 -0.96875 -0.8125 -1.5q-0.671875 -0.546875 -1.90625 -0.546875q-1.453125 0 -2.078125 0.484375q-0.625 0.484375 -0.625 1.125q0 0.40625 0.265625 0.734375q0.25 0.34375 0.8125 0.5625q0.3125 0.125 1.859375 0.546875q2.234375 0.59375 3.109375 0.984375q0.890625 0.375 1.390625 1.109375q0.515625 0.71875 0.515625 1.796875q0 1.046875 -0.625 1.984375q-0.609375 0.9375 -1.765625 1.453125q-1.15625 0.5 -2.625 0.5q-2.421875 0 -3.703125 -1.0q-1.265625 -1.015625 -1.625 -3.0z" fill-rule="nonzero"/><path fill="#000000" fill-opacity="0.0" d="m94.51867 185.9108l-19.244095 23.81102" fill-rule="evenodd"/><path stroke="#595959" stroke-width="2.0" stroke-linejoin="round" stroke-linecap="butt" d="m94.51867 185.9108l-19.244095 23.81102" fill-rule="evenodd"/><path fill="#d9ead3" d="m172.26993 233.24136l0 0c0 -12.985214 -10.526596 -23.51181 -23.51181 -23.51181l0 0c-6.235718 0 -12.216034 2.477127 -16.62535 6.8864594c-4.4093246 4.409317 -6.8864594 10.389633 -6.8864594 16.62535l0 0c0 12.985214 10.526596 23.51181 23.51181 23.51181l0 0c12.985214 0 23.51181 -10.526596 23.51181 -23.51181z" fill-rule="evenodd"/><path stroke="#595959" stroke-width="2.0" stroke-linejoin="round" stroke-linecap="butt" d="m172.26993 233.24136l0 0c0 -12.985214 -10.526596 -23.51181 -23.51181 -23.51181l0 0c-6.235718 0 -12.216034 2.477127 -16.62535 6.8864594c-4.4093246 4.409317 -6.8864594 10.389633 -6.8864594 16.62535l0 0c0 12.985214 10.526596 23.51181 23.51181 23.51181l0 0c12.985214 0 23.51181 -10.526596 23.51181 -23.51181z" fill-rule="evenodd"/><path fill="#000000" d="m143.66241 241.78137l0 -12.453125l1.90625 0l0 1.78125q1.375 -2.0625 3.953125 -2.0625q1.125 0 2.0625 0.40625q0.953125 0.40625 1.421875 1.0625q0.46875 0.65625 0.65625 1.5625q0.125 0.578125 0.125 2.046875l0 7.65625l-2.109375 0l0 -7.578125q0 -1.28125 -0.25 -1.921875q-0.25 -0.640625 -0.875 -1.015625q-0.625 -0.390625 -1.46875 -0.390625q-1.34375 0 -2.328125 0.859375q-0.984375 0.859375 -0.984375 3.25l0 6.796875l-2.109375 0z" fill-rule="nonzero"/><path fill="#d9ead3" d="m172.26993 300.2234l0 0c0 -12.9852295 -10.526596 -23.51181 -23.51181 -23.51181l0 0c-6.235718 0 -12.216034 2.4771118 -16.62535 6.886444c-4.4093246 4.4093323 -6.8864594 10.389648 -6.8864594 16.625366l0 0c0 12.985199 10.526596 23.51181 23.51181 23.51181l0 0c12.985214 0 23.51181 -10.526611 23.51181 -23.51181z" fill-rule="evenodd"/><path stroke="#595959" stroke-width="2.0" stroke-linejoin="round" stroke-linecap="butt" d="m172.26993 300.2234l0 0c0 -12.9852295 -10.526596 -23.51181 -23.51181 -23.51181l0 0c-6.235718 0 -12.216034 2.4771118 -16.62535 6.886444c-4.4093246 4.4093323 -6.8864594 10.389648 -6.8864594 16.625366l0 0c0 12.985199 10.526596 23.51181 23.51181 23.51181l0 0c12.985214 0 23.51181 -10.526611 23.51181 -23.51181z" fill-rule="evenodd"/><path fill="#000000" d="m144.35187 308.7634l0 -17.1875l2.109375 0l0 9.796875l5.0 -5.0625l2.71875 0l-4.75 4.625l5.234375 7.828125l-2.59375 0l-4.125 -6.359375l-1.484375 1.421875l0 4.9375l-2.109375 0z" fill-rule="nonzero"/><path fill="#000000" fill-opacity="0.0" d="m127.76939 185.9108l20.976387 23.81102" fill-rule="evenodd"/><path stroke="#595959" stroke-width="2.0" stroke-linejoin="round" stroke-linecap="butt" d="m127.76939 185.9108l20.976387 23.81102" fill-rule="evenodd"/><path fill="#000000" fill-opacity="0.0" d="m148.75812 256.75317l0 19.968506" fill-rule="evenodd"/><path stroke="#595959" stroke-width="2.0" stroke-linejoin="round" stroke-linecap="butt" d="m148.75812 256.75317l0 19.968506" fill-rule="evenodd"/><path fill="#d9ead3" d="m172.26993 366.42114l0 0c0 -12.9852295 -10.526596 -23.51181 -23.51181 -23.51181l0 0c-6.235718 0 -12.216034 2.4771118 -16.62535 6.886444c-4.4093246 4.4093323 -6.8864594 10.389648 -6.8864594 16.625366l0 0c0 12.985199 10.526596 23.51181 23.51181 23.51181l0 0c12.985214 0 23.51181 -10.526611 23.51181 -23.51181z" fill-rule="evenodd"/><path stroke="#595959" stroke-width="2.0" stroke-linejoin="round" stroke-linecap="butt" d="m172.26993 366.42114l0 0c0 -12.9852295 -10.526596 -23.51181 -23.51181 -23.51181l0 0c-6.235718 0 -12.216034 2.4771118 -16.62535 6.886444c-4.4093246 4.4093323 -6.8864594 10.389648 -6.8864594 16.625366l0 0c0 12.985199 10.526596 23.51181 23.51181 23.51181l0 0c12.985214 0 23.51181 -10.526611 23.51181 -23.51181z" fill-rule="evenodd"/><path fill="#000000" d="m143.4925 371.24237l2.09375 -0.328125q0.171875 1.25 0.96875 1.921875q0.8125 0.671875 2.25 0.671875q1.453125 0 2.15625 -0.59375q0.703125 -0.59375 0.703125 -1.390625q0 -0.71875 -0.625 -1.125q-0.421875 -0.28125 -2.15625 -0.71875q-2.3125 -0.578125 -3.21875 -1.0q-0.890625 -0.4375 -1.359375 -1.1875q-0.453125 -0.765625 -0.453125 -1.671875q0 -0.828125 0.375 -1.53125q0.390625 -0.71875 1.046875 -1.1875q0.484375 -0.359375 1.328125 -0.609375q0.859375 -0.265625 1.828125 -0.265625q1.46875 0 2.578125 0.421875q1.109375 0.421875 1.625 1.15625q0.53125 0.71875 0.734375 1.921875l-2.0625 0.28125q-0.140625 -0.96875 -0.8125 -1.5q-0.671875 -0.546875 -1.90625 -0.546875q-1.453125 0 -2.078125 0.484375q-0.625 0.484375 -0.625 1.125q0 0.40625 0.265625 0.734375q0.25 0.34375 0.8125 0.5625q0.3125 0.125 1.859375 0.546875q2.234375 0.59375 3.109375 0.984375q0.890625 0.375 1.390625 1.109375q0.515625 0.71875 0.515625 1.796875q0 1.046875 -0.625 1.984375q-0.609375 0.9375 -1.765625 1.453125q-1.15625 0.5 -2.625 0.5q-2.421875 0 -3.703125 -1.0q-1.265625 -1.015625 -1.625 -3.0z" fill-rule="nonzero"/><path fill="#000000" fill-opacity="0.0" d="m148.75812 323.7352l0 19.181091" fill-rule="evenodd"/><path stroke="#595959" stroke-width="2.0" stroke-linejoin="round" stroke-linecap="butt" d="m148.75812 323.7352l0 19.181091" fill-rule="evenodd"/></g></svg>